<svg width="79" height="79" viewBox="0 0 79 79" fill="none" xmlns="http://www.w3.org/2000/svg">
<path d="M46.0833 26.3334V19.75C46.0833 18.004 45.3897 16.3295 44.1551 15.0949C42.9205 13.8603 41.246 13.1667 39.5 13.1667H16.4583C14.7123 13.1667 13.0378 13.8603 11.8032 15.0949C10.5686 16.3295 9.875 18.004 9.875 19.75V59.25C9.875 60.996 10.5686 62.6705 11.8032 63.9051C13.0378 65.1398 14.7123 65.8334 16.4583 65.8334H39.5C41.246 65.8334 42.9205 65.1398 44.1551 63.9051C45.3897 62.6705 46.0833 60.996 46.0833 59.25V52.6667" stroke="white" stroke-width="5" stroke-linecap="round" stroke-linejoin="round"/>
<path d="M23.0416 39.5H69.125L59.25 29.625M59.25 49.375L69.125 39.5" stroke="white" stroke-width="5" stroke-linecap="round" stroke-linejoin="round"/>
</svg>
